<svg version="1.2" xmlns="http://www.w3.org/2000/svg" width="55" height="55"><path d="M54.4 43.1q.2 1.3-.8 2.3L46 53q-.6.6-1.4 1-.8.4-1.6.6h-1.1q-1.1 0-3.6-.4-2.4-.3-6-1.8-3.5-1.5-8-4.4-4.5-3-9.5-8.1-4.1-4-6.7-7.7-2.7-3.6-4.3-6.7-1.6-3.1-2.4-5.6-.8-2.5-1.1-4.4-.3-1.8-.2-2.8v-1.2q.1-.8.6-1.6.4-.9.9-1.4L9.3.8q.8-.8 1.8-.8.8 0 1.4.4.5.5.9 1.1l6.2 11.7q.5 1 .3 2.1-.3 1.1-1 1.8L16.1 20q-.1.1-.2.3-.1.3-.1.5.2 1.2 1 2.7.7 1.4 2.2 3.4 1.4 2 4 4.6 2.6 2.7 4.6 4.2 2.1 1.4 3.4 2.1 1.4.7 2.1.9l.7.1q.1 0 .4-.1l.4-.2 3.2-3.3q1.1-1 2.5-1 .9 0 1.5.4h.1L53 41.2q1.2.7 1.4 1.9z" fill="#2f303b"/></svg>